<svg width="1150" height="1150" viewBox="0 0 1150 1150" fill="none" xmlns="http://www.w3.org/2000/svg">
<g opacity="0.5">
<path d="M964.966 184.607C964.966 450.59 749.269 666.211 483.194 666.211" stroke="white" stroke-dasharray="4 4"/>
<path d="M185.432 368.554C185.432 532.943 318.744 666.212 483.194 666.212" stroke="white" stroke-dasharray="4 4"/>
<path d="M369.442 184.606C267.817 184.606 185.432 266.962 185.432 368.552" stroke="white" stroke-dasharray="4 4"/>
<path d="M483.19 298.32C483.19 235.519 432.263 184.609 369.442 184.609" stroke="white" stroke-dasharray="4 4"/>
<path d="M483.193 298.319C483.193 337.109 451.737 368.551 412.935 368.551" stroke="white" stroke-dasharray="4 4"/>
<path d="M369.442 325.075C369.442 349.087 388.916 368.552 412.937 368.552" stroke="white" stroke-dasharray="4 4"/>
<path d="M369.442 325.075C369.442 310.3 381.427 298.32 396.207 298.32" stroke="white" stroke-dasharray="4 4"/>
<path d="M412.933 315.041C412.933 305.807 405.445 298.32 396.207 298.32" stroke="white" stroke-dasharray="4 4"/>
<path d="M412.935 315.041C412.935 320.582 408.441 325.075 402.897 325.075" stroke="white" stroke-dasharray="4 4"/>
<path d="M402.759 314.908L402.759 325.022" stroke="white" stroke-dasharray="4 4"/>
<path d="M396.167 315.062L413.026 315.062" stroke="white" stroke-dasharray="4 4"/>
<path d="M402.911 318.432L396.167 318.432" stroke="white" stroke-dasharray="4 4"/>
<path d="M399.692 318.278L399.692 314.907" stroke="white" stroke-dasharray="4 4"/>
<path d="M396.321 325.022L396.321 298.359" stroke="white" stroke-dasharray="4 4"/>
<path d="M413.026 325.176L369.501 325.176" stroke="white" stroke-dasharray="4 4"/>
<path d="M412.871 298.36L412.871 368.543" stroke="white" stroke-dasharray="4 4"/>
<path d="M369.501 298.207L483.206 298.207" stroke="white" stroke-dasharray="4 4"/>
<path d="M369.351 368.541L369.351 184.653" stroke="white" stroke-dasharray="4 4"/>
<path d="M483.207 368.697L185.305 368.697" stroke="white" stroke-dasharray="4 4"/>
<path d="M483.057 184.653L483.057 666.136" stroke="white" stroke-dasharray="4 4"/>
<path d="M964.847 184.653L964.847 666.75" stroke="white" stroke-dasharray="4 4"/>
<path d="M185.46 184.959L185.46 666.748" stroke="white" stroke-dasharray="4 4"/>
<path d="M965 666.595L185 666.595" stroke="white" stroke-dasharray="4 4"/>
<path d="M965 184.5L185 184.5" stroke="white" stroke-dasharray="4 4"/>
<path d="M396.207 318.388C396.207 322.081 399.205 325.075 402.897 325.075" stroke="white" stroke-dasharray="4 4"/>
<path d="M396.207 318.385C396.207 316.539 397.702 315.042 399.552 315.042" stroke="white" stroke-dasharray="4 4"/>
<path d="M402.891 318.392C402.891 316.546 401.391 315.049 399.546 315.049" stroke="white" stroke-dasharray="4 4"/>
<path d="M185.035 965.893C185.035 699.91 400.732 484.289 666.807 484.289" stroke="white" stroke-dasharray="4 4"/>
<path d="M964.569 781.946C964.569 617.557 831.257 484.288 666.807 484.288" stroke="white" stroke-dasharray="4 4"/>
<path d="M780.558 965.894C882.183 965.894 964.568 883.538 964.568 781.948" stroke="white" stroke-dasharray="4 4"/>
<path d="M666.81 852.179C666.81 914.98 717.737 965.89 780.558 965.89" stroke="white" stroke-dasharray="4 4"/>
<path d="M666.807 852.18C666.807 813.391 698.263 781.949 737.065 781.949" stroke="white" stroke-dasharray="4 4"/>
<path d="M780.558 825.424C780.558 801.413 761.084 781.948 737.063 781.948" stroke="white" stroke-dasharray="4 4"/>
<path d="M780.558 825.424C780.558 840.199 768.573 852.18 753.793 852.18" stroke="white" stroke-dasharray="4 4"/>
<path d="M737.067 835.458C737.067 844.693 744.555 852.18 753.793 852.18" stroke="white" stroke-dasharray="4 4"/>
<path d="M737.065 835.458C737.065 829.918 741.559 825.425 747.103 825.425" stroke="white" stroke-dasharray="4 4"/>
<path d="M747.242 835.592V825.478" stroke="white" stroke-dasharray="4 4"/>
<path d="M753.834 835.438H736.975" stroke="white" stroke-dasharray="4 4"/>
<path d="M747.089 832.068H753.833" stroke="white" stroke-dasharray="4 4"/>
<path d="M750.308 832.222V835.592" stroke="white" stroke-dasharray="4 4"/>
<path d="M753.679 825.478V852.141" stroke="white" stroke-dasharray="4 4"/>
<path d="M736.974 825.324H780.499" stroke="white" stroke-dasharray="4 4"/>
<path d="M737.13 852.14V781.957" stroke="white" stroke-dasharray="4 4"/>
<path d="M780.499 852.293H666.794" stroke="white" stroke-dasharray="4 4"/>
<path d="M780.649 781.958V965.847" stroke="white" stroke-dasharray="4 4"/>
<path d="M666.793 781.803H964.695" stroke="white" stroke-dasharray="4 4"/>
<path d="M666.943 965.847V484.364" stroke="white" stroke-dasharray="4 4"/>
<path d="M185.153 965.847V483.75" stroke="white" stroke-dasharray="4 4"/>
<path d="M964.54 965.541V483.752" stroke="white" stroke-dasharray="4 4"/>
<path d="M185 483.905H965" stroke="white" stroke-dasharray="4 4"/>
<path d="M185 966H965" stroke="white" stroke-dasharray="4 4"/>
<path d="M753.794 832.112C753.794 828.418 750.796 825.424 747.104 825.424" stroke="white" stroke-dasharray="4 4"/>
<path d="M753.793 832.114C753.793 833.961 752.298 835.458 750.448 835.458" stroke="white" stroke-dasharray="4 4"/>
<path d="M747.109 832.107C747.109 833.954 748.609 835.451 750.454 835.451" stroke="white" stroke-dasharray="4 4"/>
</g>
</svg>
