<svg width="1150" height="1150" viewBox="0 0 1150 1150" fill="none" xmlns="http://www.w3.org/2000/svg">
<path d="M533.207 303.293L829.486 599.51L831.193 601.217H509.457L511.154 599.512L563.791 546.622L564.084 546.328H698.675L494.293 342.208L493.585 341.5L494.293 340.793L532.5 302.586L533.207 303.293Z" stroke="white" stroke-width="2"/>
<path d="M575.707 184.293L965.707 574.292L966.414 574.999L965.707 575.706L575.707 965.707L575 966.414L574.293 965.707L184.293 575.706L183.586 574.999L184.293 574.292L574.293 184.293L575 183.586L575.707 184.293ZM261.212 574.999L575 888.787L888.788 574.999L575 261.211L261.212 574.999Z" stroke="white" stroke-width="2"/>
<rect x="321.488" y="711.376" width="551.342" height="54.8269" transform="rotate(-45 321.488 711.376)" stroke="white" stroke-width="2"/>
</svg>
